<svg width="14" height="17" viewBox="0 0 14 17" fill="none" xmlns="http://www.w3.org/2000/svg">
<path d="M7.00004 16.3333C7.91671 16.3333 8.66671 15.5833 8.66671 14.6666H5.33338C5.33338 15.5833 6.07504 16.3333 7.00004 16.3333ZM12 11.3333V7.16665C12 4.60831 10.6334 2.46665 8.25004 1.89998V1.33331C8.25004 0.641646 7.69171 0.083313 7.00004 0.083313C6.30838 0.083313 5.75004 0.641646 5.75004 1.33331V1.89998C3.35838 2.46665 2.00004 4.59998 2.00004 7.16665V11.3333L0.925043 12.4083C0.400043 12.9333 0.766709 13.8333 1.50838 13.8333H12.4834C13.225 13.8333 13.6 12.9333 13.075 12.4083L12 11.3333Z" fill="#2D5E9F"/>
</svg>
