<svg width="16" height="16" viewBox="0 0 16 16" fill="none" xmlns="http://www.w3.org/2000/svg">
<path d="M0.5 6.33334V9.66668C0.5 10.125 0.875 10.5 1.33333 10.5H3.83333L6.575 13.2417C7.1 13.7667 8 13.3917 8 12.65V3.34168C8 2.60001 7.1 2.22501 6.575 2.75001L3.83333 5.50001H1.33333C0.875 5.50001 0.5 5.87501 0.5 6.33334ZM11.75 8.00001C11.75 6.52501 10.9 5.25834 9.66667 4.64168V11.35C10.9 10.7417 11.75 9.47501 11.75 8.00001ZM9.66667 1.70834V1.87501C9.66667 2.19168 9.875 2.46668 10.1667 2.58334C12.3167 3.44168 13.8333 5.55001 13.8333 8.00001C13.8333 10.45 12.3167 12.5583 10.1667 13.4167C9.86667 13.5333 9.66667 13.8083 9.66667 14.125V14.2917C9.66667 14.8167 10.1917 15.1833 10.675 15C13.5 13.925 15.5 11.2 15.5 8.00001C15.5 4.80001 13.5 2.07501 10.675 1.00001C10.1917 0.808343 9.66667 1.18334 9.66667 1.70834Z" fill="#2D5E9F"/>
</svg>
