<svg width="18" height="18" viewBox="0 0 18 18" fill="none" xmlns="http://www.w3.org/2000/svg">
<path d="M8.99996 0.666656C4.39996 0.666656 0.666626 4.39999 0.666626 8.99999C0.666626 13.6 4.39996 17.3333 8.99996 17.3333C13.6 17.3333 17.3333 13.6 17.3333 8.99999C17.3333 4.39999 13.6 0.666656 8.99996 0.666656ZM8.16663 15.6083C4.87496 15.2 2.33329 12.4 2.33329 8.99999C2.33329 8.48332 2.39996 7.99166 2.50829 7.50832L6.49996 11.5V12.3333C6.49996 13.25 7.24996 14 8.16663 14V15.6083ZM13.9166 13.4917C13.7 12.8167 13.0833 12.3333 12.3333 12.3333H11.5V9.83332C11.5 9.37499 11.125 8.99999 10.6666 8.99999H5.66663V7.33332H7.33329C7.79163 7.33332 8.16663 6.95832 8.16663 6.49999V4.83332H9.83329C10.75 4.83332 11.5 4.08332 11.5 3.16666V2.82499C13.9416 3.81666 15.6666 6.20832 15.6666 8.99999C15.6666 10.7333 15 12.3083 13.9166 13.4917Z" fill="#2D5E9F"/>
</svg>
