<svg width="20" height="13" viewBox="0 0 20 13" fill="none" xmlns="http://www.w3.org/2000/svg">
<path d="M10 0.333313C5.83337 0.333313 2.27504 2.92498 0.833374 6.58331C2.27504 10.2416 5.83337 12.8333 10 12.8333C14.1667 12.8333 17.725 10.2416 19.1667 6.58331C17.725 2.92498 14.1667 0.333313 10 0.333313ZM10 10.75C7.70004 10.75 5.83337 8.88331 5.83337 6.58331C5.83337 4.28331 7.70004 2.41665 10 2.41665C12.3 2.41665 14.1667 4.28331 14.1667 6.58331C14.1667 8.88331 12.3 10.75 10 10.75ZM10 4.08331C8.61671 4.08331 7.50004 5.19998 7.50004 6.58331C7.50004 7.96665 8.61671 9.08331 10 9.08331C11.3834 9.08331 12.5 7.96665 12.5 6.58331C12.5 5.19998 11.3834 4.08331 10 4.08331Z" fill="#2D5E9F"/>
</svg>
